Coordinates
version=1
nRows=21
nColumns=12
inDegrees=yes

Units are S.I. units (second, meters, Newtons, ...)
Angles are in degrees

endheader
time	SC_y	SC_z	SC_x	AC_y	AC_z	AC_x	GH_y	GH_z	GH_yy	EL_x	PS_y
       0.0              -35.05          36.21          26.89          39.37         -11.84         -16.03         -63.59        -0.6666         -99.16          33.32          147.5
 0.0006925              -35.05           36.2           26.9          39.37         -11.84         -16.02         -63.59        -0.6629         -99.14          33.32          147.5
  0.001385              -35.05           36.2          26.91          39.37         -11.84         -16.02         -63.59         -0.659         -99.13          33.33          147.5
  0.002077              -35.05          36.19          26.92          39.37         -11.83         -16.01         -63.59        -0.6549         -99.11          33.34          147.4
   0.00277              -35.06          36.19          26.93          39.38         -11.83         -16.01         -63.59        -0.6504         -99.09          33.35          147.4
  0.003462              -35.06          36.18          26.94          39.38         -11.83          -16.0         -63.59        -0.6457         -99.07          33.35          147.4
  0.004155              -35.06          36.18          26.95          39.38         -11.83          -16.0          -63.6        -0.6407         -99.04          33.36          147.3
  0.004847              -35.07          36.17          26.96          39.39         -11.82         -15.99          -63.6        -0.6353         -99.02          33.37          147.3
   0.00554              -35.07          36.16          26.98          39.39         -11.82         -15.99          -63.6        -0.6295          -99.0          33.38          147.3
  0.006232              -35.07          36.16          26.99           39.4         -11.82         -15.98          -63.6        -0.6233         -98.97          33.39          147.3
  0.006925              -35.08          36.15           27.0           39.4         -11.82         -15.97          -63.6        -0.6167         -98.94          33.41          147.2
  0.007617              -35.08          36.14          27.02          39.41         -11.81         -15.97          -63.6        -0.6095         -98.91          33.42          147.2
   0.00831              -35.09          36.13          27.04          39.41         -11.81         -15.96          -63.6        -0.6018         -98.87          33.43          147.1
  0.009002              -35.09          36.12          27.06          39.42         -11.81         -15.95         -63.61        -0.5934         -98.83          33.45          147.1
  0.009694               -35.1          36.11          27.08          39.42          -11.8         -15.94         -63.61        -0.5844         -98.79          33.46          147.0
   0.01039              -35.11           36.1           27.1          39.43          -11.8         -15.93         -63.61        -0.5746         -98.75          33.48          147.0
   0.01108              -35.11          36.09          27.12          39.44         -11.79         -15.92         -63.61         -0.564          -98.7           33.5          146.9
   0.01177              -35.12          36.07          27.15          39.44         -11.79         -15.91         -63.62        -0.5524         -98.65          33.52          146.9
   0.01246              -35.13          36.06          27.17          39.45         -11.78         -15.89         -63.62        -0.5398          -98.6          33.54          146.8
   0.01316              -35.14          36.04          27.21          39.46         -11.77         -15.88         -63.62        -0.5259         -98.53          33.57          146.7
   0.01385              -35.15          36.02          27.24          39.47         -11.77         -15.86         -63.62        -0.5107         -98.47           33.6          146.6
